
<svg xmlns="http://www.w3.org/2000/svg" width="473" height="347" viewBox="0 0 473 347" fill="none"> <path d="M6.5625 0.00050354C3.0625 0.00050354 0 3.063 0 6.563V343.443C0 346.943 2.1602 347.818 4.7852 345.63L187.715 179.381C190.34 176.756 192.5 171.943 192.5 168.442V6.5625C192.5 3.0625 189.438 0 185.938 0L6.5625 0.00050354ZM286.562 0.00050354C283.062 0.00050354 280 3.063 280 6.563V343.443C280 346.943 282.16 347.818 284.785 345.63L467.715 179.381C470.34 176.756 472.5 171.943 472.5 168.442V6.5625C472.5 3.0625 469.438 0 465.938 0L286.562 0.00050354Z" fill="#8860D0"></path> </svg>